HIERARCHY
ROOT Bip001_Pelvis
{
  OFFSET 33.2923 95.8902 -28.781
  CHANNELS 6 Xposition Yposition Zposition Zrotation Xrotation Yrotation
  JOINT Bip001_Spine
  {
    OFFSET 1.4188e-005 10.2191 -0.0116013
    CHANNELS 3 Zrotation Xrotation Yrotation
    JOINT Bip001_L_Thigh
    {
      OFFSET 11.0458 -10.2192 0.0116197
      CHANNELS 3 Zrotation Xrotation Yrotation
      JOINT Bip001_L_Calf
      {
        OFFSET -0.707118 -44.0221 0.360014
        CHANNELS 3 Zrotation Xrotation Yrotation
        JOINT Bip001_L_Foot
        {
          OFFSET -0.651902 -40.5938 -3.56146
          CHANNELS 3 Zrotation Xrotation Yrotation
          JOINT Bip001_L_Toe0
          {
            OFFSET 0.0530839 -10.2181 13.1504
            CHANNELS 3 Zrotation Xrotation Yrotation
            End Site
            {
              OFFSET -1.02532e-005 0 7.55606
            }
          }
        }
      }
    }
    JOINT Bip001_R_Thigh
    {
      OFFSET -11.0458 -10.2191 0.0115893
      CHANNELS 3 Zrotation Xrotation Yrotation
      JOINT Bip001_R_Calf
      {
        OFFSET 0.706994 -44.0221 0.35984
        CHANNELS 3 Zrotation Xrotation Yrotation
        JOINT Bip001_R_Foot
        {
          OFFSET 0.651786 -40.5938 -3.5613
          CHANNELS 3 Zrotation Xrotation Yrotation
          JOINT Bip001_R_Toe0
          {
            OFFSET -0.0531479 -10.2181 13.1504
            CHANNELS 3 Zrotation Xrotation Yrotation
            End Site
            {
              OFFSET -1.02894e-005 0 7.55606
            }
          }
        }
      }
    }
    JOINT Bip001_Spine1
    {
      OFFSET 1.87041e-005 14.5736 1.08638
      CHANNELS 3 Zrotation Xrotation Yrotation
      JOINT Bip001_Spine2
      {
        OFFSET 2.24614e-005 14.5058 -1.69078
        CHANNELS 3 Zrotation Xrotation Yrotation
        JOINT Bip001_Neck
        {
          OFFSET 2.20278e-005 15.3945 -0.489414
          CHANNELS 3 Zrotation Xrotation Yrotation
          JOINT Bip001_L_Clavicle
          {
            OFFSET 6.06036 -0.000579998 0.00836775
            CHANNELS 3 Zrotation Xrotation Yrotation
            JOINT Bip001_L_UpperArm
            {
              OFFSET 11.5509 -0.0600302 0.00193952
              CHANNELS 3 Zrotation Xrotation Yrotation
              JOINT Bip001_L_Forearm
              {
                OFFSET 25.9523 0.0806089 -2.15551
                CHANNELS 3 Zrotation Xrotation Yrotation
                JOINT Bip001_L_Hand
                {
                  OFFSET 32.2476 0.153767 1.63968
                  CHANNELS 3 Zrotation Xrotation Yrotation
                  JOINT Bip001_L_Finger0
                  {
                    OFFSET 6.04639 -2.20976 5.90322
                    CHANNELS 3 Zrotation Xrotation Yrotation
                    End Site
                    {
                      OFFSET 4.22376 -1.43895 0.606486
                    }
                  }
                  JOINT Bip001_L_Finger1
                  {
                    OFFSET 11.0826 -0.704819 -0.198153
                    CHANNELS 3 Zrotation Xrotation Yrotation
                    End Site
                    {
                      OFFSET 6.20028 -0.397518 -0.0787166
                    }
                  }
                }
              }
            }
          }
          JOINT Bip001_R_Clavicle
          {
            OFFSET -6.06036 -0.000563197 0.00835105
            CHANNELS 3 Zrotation Xrotation Yrotation
            JOINT Bip001_R_UpperArm
            {
              OFFSET -11.5509 -0.0599978 0.00190698
              CHANNELS 3 Zrotation Xrotation Yrotation
              JOINT Bip001_R_Forearm
              {
                OFFSET -25.9523 0.080682 -2.1559
                CHANNELS 3 Zrotation Xrotation Yrotation
                JOINT Bip001_R_Hand
                {
                  OFFSET -32.2476 0.153858 1.63991
                  CHANNELS 3 Zrotation Xrotation Yrotation
                  JOINT Bip001_R_Finger0
                  {
                    OFFSET -6.04641 -2.20974 5.90321
                    CHANNELS 3 Zrotation Xrotation Yrotation
                    End Site
                    {
                      OFFSET -4.22376 -1.43894 0.606474
                    }
                  }
                  JOINT Bip001_R_Finger1
                  {
                    OFFSET -11.0826 -0.704789 -0.198184
                    CHANNELS 3 Zrotation Xrotation Yrotation
                    End Site
                    {
                      OFFSET -6.20028 -0.397501 -0.0787338
                    }
                  }
                }
              }
            }
          }
          JOINT Bip001_Head
          {
            OFFSET 1.09673e-005 11.2744 2.05948
            CHANNELS 3 Zrotation Xrotation Yrotation
            End Site
            {
              OFFSET 2.89576e-005 20.8808 -2.77728e-005
            }
          }
        }
      }
    }
  }
}
MOTION
Frames:	6
Frame Time:	0.04
32.0972 95.9167 -28.9541 0.17884 -0.546589 1.3015 -0.0992913 2.93367 0.0432944 5.37726 -3.95033 6.36916 -0.357669 7.2061 -11.7322 4.84005 -1.22735 -0.184963 -3.19144 -4.91781 5.12509 -2.82031 -3.8831 -3.08692 0.12771 10.2126 0.30367 -4.99031 -9.80938 3.62351 1.84858 -6.6314 2.30346 -0.202317 5.86724 0.0919687 -0.201988 5.86726 0.0919109 0.00453633 -3.47521 -6.2007 -24.6196 3.69545 0.426289 -48.5418 41.0147 -3.18411 12.2813 -0.151884 -25.063 8.12946 0.771878 -2.09913 6.36111e-015 -6.36111e-015 -4.77083e-015 3.18055e-015 -6.36111e-015 -1.59028e-015 28.304 12.1805 17.6951 36.8951 43.0916 15.4314 -7.33798 15.836 4.56359 0.399738 2.93408 2.35547 -3.18055e-015 1.59028e-015 1.39149e-015 -4.77083e-015 0 9.93923e-016 -2.1286 14.9362 -5.14465 
32.122 95.9118 -28.8939 0.215412 -0.561977 1.51691 -0.0972957 2.90006 0.00435226 5.34907 -3.88464 6.47516 -0.377988 7.20043 -11.9403 4.74502 -1.33435 -0.18034 -3.14371 -4.85574 5.09044 -2.84271 -3.79618 -3.27428 0.0507266 10.2987 0.354437 -5.00869 -9.86108 3.62083 1.84835 -6.61195 2.3082 -0.179401 5.80009 0.0130501 -0.179481 5.80011 0.0131734 -0.161332 -3.36037 -6.17266 -24.5269 3.55538 0.56859 -48.7238 40.8202 -2.95219 12.3364 0.0771566 -25.0171 8.00286 1.07567 -2.08974 -3.18055e-015 -1.27222e-014 4.77083e-015 -3.18055e-015 -1.27222e-014 3.18055e-015 28.5149 12.0368 17.5666 39.6661 44.7406 12.4118 -6.76137 16.9727 3.71457 4.07209 3.71908 3.4484 -3.97569e-016 1.59028e-015 -8.69683e-016 -7.95139e-016 0 -6.4605e-016 -1.97308 15.085 -5.20705 
32.1532 95.9178 -28.8442 0.307474 -0.563967 1.76109 -0.0948093 2.88022 -0.0451 5.26509 -3.85095 6.49186 -0.399307 7.15141 -12.0864 4.67743 -1.34891 -0.179802 -3.14754 -4.74881 5.07083 -2.89489 -3.76524 -3.47178 -0.0571634 10.4126 0.503411 -5.07328 -9.89937 3.48714 1.85739 -6.67896 2.34647 -0.189075 5.7605 -0.0849129 -0.189015 5.76052 -0.0849178 -0.223818 -3.475 -6.13005 -24.5477 3.62463 0.765612 -48.8001 40.5825 -2.80592 12.4137 0.39224 -24.991 7.87073 1.01708 -2.15529 6.36111e-015 9.54166e-015 -3.18055e-015 6.36111e-015 9.54167e-015 -3.18055e-015 28.6447 12.0109 17.1221 42.326 44.0285 9.80439 -6.61064 18.0524 3.90155 3.95895 3.6809 3.56532 -9.93923e-017 -1.59028e-015 -9.38015e-016 -1.49088e-016 -2.38542e-015 -1.14301e-015 -1.92702 15.4406 -5.19255 
32.1898 95.9149 -28.7578 0.395976 -0.616661 1.92852 -0.0989382 2.86649 -0.0874415 5.1825 -3.68865 6.82851 -0.382057 7.03527 -12.4861 4.53547 -1.45386 -0.179724 -3.17762 -4.64719 5.08398 -2.96201 -3.61944 -3.77641 -0.157687 10.4369 0.628327 -5.09289 -9.9765 3.54279 1.88062 -6.75478 2.37442 -0.194265 5.73313 -0.168511 -0.194269 5.73315 -0.168515 -0.217091 -3.41881 -6.11033 -24.622 3.51346 0.938502 -48.8683 40.585 -2.64494 12.5071 0.573038 -24.9473 7.78783 0.891281 -2.15238 6.36111e-015 6.36111e-015 -1.59028e-015 6.36111e-015 6.36111e-015 -0 28.8446 11.8214 16.623 44.4116 42.628 7.74819 -6.64683 19.1209 4.40723 2.53753 3.51222 4.22116 3.97569e-016 -3.18055e-015 -4.34841e-016 3.97569e-016 -3.18056e-015 1.11816e-016 -1.99694 15.6301 -5.14218 
32.22 95.9049 -28.7202 0.376853 -0.573562 2.11336 -0.10107 2.84303 -0.143305 5.22378 -3.7514 6.64909 -0.449845 7.12105 -12.4684 4.61994 -1.50081 -0.179546 -3.21818 -4.6355 5.11333 -2.93984 -3.59711 -3.8991 -0.173317 10.4687 0.639788 -5.12884 -10.0004 3.52408 1.88889 -6.77257 2.38523 -0.183477 5.68162 -0.284497 -0.183952 5.68164 -0.28451 -0.21406 -3.31175 -6.07243 -24.6693 3.36513 1.07435 -48.9274 40.6847 -2.42935 12.5527 0.53301 -24.9672 7.89596 0.837884 -2.12764 -3.18055e-015 -9.54166e-015 1.59028e-015 2.64834e-031 -9.54167e-015 1.59028e-015 28.9043 11.4407 15.8673 45.8727 41.7435 6.44618 -6.96972 19.8386 5.24744 -0.083901 2.09658 5.57476 0 0 -2.98177e-016 5.51738e-033 1.59028e-015 -1.98785e-016 -2.07332 15.7095 -5.0796 
32.2573 95.909 -28.6672 0.43022 -0.620276 2.05107 -0.10244 2.8493 -0.16007 5.11259 -3.59264 6.63965 -0.418691 6.96871 -12.4231 4.75356 -1.34307 -0.177566 -3.15341 -4.75995 5.05173 -3.0157 -3.56111 -3.86076 -0.171912 10.5318 0.628998 -5.11921 -10.0362 3.56673 1.88954 -6.79253 2.37125 -0.201409 5.68816 -0.312406 -0.198315 5.68815 -0.312404 -0.231221 -3.18265 -6.03315 -24.6467 3.24471 1.05496 -49.0353 40.5631 -2.31363 12.4703 0.477073 -24.9324 8.03292 0.810851 -2.08289 -3.18055e-015 -3.18055e-015 -0 -3.18055e-015 3.18056e-015 1.59028e-015 29.128 11.1819 15.4029 46.6772 40.8902 5.37784 -7.30774 19.4463 6.19372 -1.55717 1.42743 7.37659 0 0 -1.98785e-016 0 1.59028e-015 -0 -2.17325 15.7403 -5.01347 
